<svg xmlns="http://www.w3.org/2000/svg" width="767.806" height="573.335" viewBox="0 0 767.806 573.335">
  <g id="Group_13" data-name="Group 13" transform="translate(-278 -1282)">
    <g id="Background_Shape_2" data-name="Background Shape 2" transform="translate(278 1565.54)" opacity="0.6">
      <path id="Background_Shape" data-name="Background Shape" d="M767.471,169.512c11.192,75.765-260.235,125.183-493.859,90.7S-67.187,91.039,44.295,19.276,756.279,93.747,767.471,169.512Z" transform="translate(0 0)" fill="#2a5c91"/>
    </g>
    <g id="Group_12" data-name="Group 12" transform="translate(285.926 1545.724)">
      <path id="Head" d="M0,67.577l9.032-35.65C4,26.921.586,20.784,1.155,13.909,2.8-5.9,35.364-1.543,41.7,8.455s5.583,35.361-2.6,37.148c-3.265.713-10.221-1.033-17.3-4.646l4.444,26.62Z" transform="translate(77.617 6.434)" fill="#b28b67"/>
      <path id="Hair" d="M11.389,42.872C8.1,30.466-1.285,22.009.148,16.465s7.637-6.9,7.637-6.9S10.994-1.425,28.484.217,56.649,8.009,52.039,21.543c-4.238,0-9.353-1.3-16.428.926-3.367,1.058-4.816,6.563-4.816,6.563H27.6s-4.654-6.533-9.177-4.8-2.057,8.412-2.057,8.412L14.79,42.872Z" transform="translate(73.245 -0.05)" fill="#191847"/>
      <path id="Seat_Stuff" data-name="Seat Stuff" d="M30.2,0h84.455l11.066,114.789H0Z" transform="translate(0 189.726)" fill="#112941"/>
      <path id="Seat_Stuff-2" data-name="Seat Stuff" d="M30.2,0H56.172L71.718,114.789H0Z" transform="translate(0 189.726)" fill="rgba(0,0,0,0.1)"/>
      <path id="LegLower" d="M0,121.68S-.212,77.729,2.877,58.466C6.4,36.479,10.25,17.348,12.26,10.371,17.053-6.266,42.391.073,41.876,8.886,40.706,28.895,13.5,121.951,13.5,121.951Z" transform="translate(178.348 156.544) rotate(20)" fill="#b28b67"/>
      <path id="LegLower-2" data-name="LegLower" d="M1.962,127.266C.867,115.555-1.166,75.014.868,56.249,3.19,34.829,6.006,16.231,7.653,9.478c3.928-16.1,30.171-8.63,30.157,0C37.779,29.07,16.664,121.409,15.562,127.246S2.649,134.625,1.962,127.266Z" transform="translate(197.228 168.435)" fill="#b28b67"/>
      <path id="LegLower-3" data-name="LegLower" d="M0,106.866,10.958,10.632C15.863-6.159,48.941-.139,48.421,8.754,47.24,28.943,29.5,99.37,29.145,105.385Z" transform="translate(174.185 155.147) rotate(20)" fill="silver"/>
      <path id="shoe" d="M5.05,5.307a2.258,2.258,0,0,0-2.9,1.522L0,14.419a72.518,72.518,0,0,0,1.017,8.911H64.685s2.482-8.2-2.865-8.859-8.884-1.181-8.884-1.181L23.344.1a1.129,1.129,0,0,0-1.5.6l-1.9,4.614s-4.95,2.31-8.045,2.31Z" transform="translate(137.62 256.147) rotate(30)" fill="#e4e4e4"/>
      <path id="shoe-2" data-name="shoe" d="M4.89,4.684a2.276,2.276,0,0,0-2.8,1.248L0,12.157a50.8,50.8,0,0,0,.985,7.308H62.644s2.4-6.728-2.775-7.265-8.6-.969-8.6-.969L22.607.412a1.174,1.174,0,0,0-1.456.493L19.309,4.689s-4.794,1.894-7.791,1.894Z" transform="translate(193.568 284.029)" fill="#e4e4e4"/>
      <path id="Leg_and_Butt" data-name="Leg and Butt" d="M186.687,33.727c0,24.594-13.793,81.961-13.8,87.376l-29.676.019s6.515-76.782,4.621-77.609-77.673,6.407-100.4,6.407C14.657,49.919,1.1,32.419,0,0H64.921C78.14,1.2,147.089,12.974,172.7,17.023,183.658,18.756,186.687,26.952,186.687,33.727Z" transform="translate(51.381 150.846)" fill="#9da1a6"/>
      <path id="Arm" d="M.852,0,39.989,17.211A98.577,98.577,0,0,1,64.107,21.87c1.766.977,4.252,3.153-1.435,3.736s-11.6,1.449-11.695,3.482,4.056,3.687,3.414,6.525q-.641,2.837-19.118-10.155L0,18.274Z" transform="matrix(0.788, -0.616, 0.616, 0.788, 161.622, 56.337)" fill="#b28b67"/>
      <path id="Arm-2" data-name="Arm" d="M3.27,0l39.3,11.919A104.158,104.158,0,0,1,67.55,13.576c1.747.729,4.1,2.523-2.006,3.741s-12.5,2.733-12.859,4.69,3.826,3.057,2.778,5.846q-1.048,2.789-18.969-7.495L0,17.582Z" transform="matrix(0.966, 0.259, -0.259, 0.966, 155.473, 116.83)" fill="#b28b67"/>
      <path id="Coat_Back" data-name="Coat Back" d="M14.692,0c26.1,24.047,58.576,39.141,103.213,51.917L107.07,69.72c-46.555-2.007-71.4-4.087-89.858-28.468C12.579,35.132,4.761,13.763,0,2.693Z" transform="matrix(0.966, 0.259, -0.259, 0.966, 90.276, 55.478)" fill="#112941"/>
      <path id="Shirt" d="M0,105.532H84.177S55.576,31.667,54.956,4.139c-.021-.936-2.062-2.584-2.964-2.368C42.088,4.139,30.8,0,30.8,0,10.842,27.178,3.941,60.639,0,105.532Z" transform="translate(51.381 53.646)" fill="#f2f2f2"/>
      <path id="Clothes_Jacket" data-name="Clothes Jacket" d="M1.554,128.31H46.437c37.148,0,27.745-64.036,2.535-128.31H35.931a5.922,5.922,0,0,0-5.4,3.126C13.16,31.5-5.575,87.743,1.554,128.31Z" transform="translate(40.372 53.646)" fill="#2a5c91"/>
      <path id="Clothes_Back" data-name="Clothes Back" d="M.982,8.37C24.925,8.331,64.955,12.6,111.311,0l4.457,18.86C75.927,40.559,35.5,56.548,1.976,47.324-3.633,45.78,4.891,32.344.982,8.37Z" transform="translate(86.474 45.314)" fill="#2a5c91"/>
    </g>
    <g id="Web" transform="translate(671.465 1378.067)">
      <rect id="Container" width="342.366" height="353.608" rx="8" fill="#f2f2f2"/>
      <rect id="Background" width="71.539" height="82.781" rx="8" transform="translate(254.475 43.945)" fill="#fff"/>
      <g id="Profile_Info" data-name="Profile Info" transform="translate(264.695 59.275)">
        <circle id="Avatar" cx="16.352" cy="16.352" r="16.352" transform="translate(9.198)" fill="#dde3e9"/>
        <rect id="Name" width="51.099" height="6.132" rx="3.066" transform="translate(0 36.792)" fill="#dde3e9"/>
        <rect id="Name-2" data-name="Name" width="34.748" height="6.132" rx="3.066" transform="translate(8.176 47.011)" fill="#dde3e9"/>
      </g>
      <path id="Header" d="M8,0H334.366a8,8,0,0,1,8,8V27.594a0,0,0,0,1,0,0H0a0,0,0,0,1,0,0V8A8,8,0,0,1,8,0Z" fill="#c5cfd6"/>
      <g id="Buttons" transform="translate(9.198 10.22)">
        <circle id="buttons-2" data-name="buttons" cx="4.088" cy="4.088" r="4.088" fill="#f2f2f2"/>
        <circle id="buttons-3" data-name="buttons" cx="4.088" cy="4.088" r="4.088" transform="translate(12.264)" fill="#f2f2f2"/>
        <circle id="buttons-4" data-name="buttons" cx="4.088" cy="4.088" r="4.088" transform="translate(24.528)" fill="#f2f2f2"/>
      </g>
      <g id="Components" transform="translate(254.475 134.902)">
        <rect id="Background-2" data-name="Background" width="71.539" height="198.266" rx="8" fill="#fff"/>
        <g id="Rows" transform="translate(18.396 18.396)">
          <rect id="Data" width="34.748" height="26.572" rx="4" fill="#dde3e9"/>
          <rect id="Data-2" data-name="Data" width="34.748" height="25.55" rx="4" transform="translate(0 34.748)" fill="#afb9c5"/>
          <rect id="Data-3" data-name="Data" width="34.748" height="25.55" rx="4" transform="translate(0 68.473)" fill="#dde3e9"/>
          <rect id="Data-4" data-name="Data" width="34.748" height="25.55" rx="4" transform="translate(0 135.924)" fill="#dde3e9"/>
          <rect id="Data-5" data-name="Data" width="34.748" height="25.55" rx="4" transform="translate(0 102.199)" fill="#c5cfd6"/>
        </g>
      </g>
      <g id="Rows-2" data-name="Rows" transform="translate(16.352 44.967)">
        <g id="Row">
          <rect id="Container-2" data-name="Container" width="229.947" height="48.033" rx="4" fill="#fff"/>
          <g id="Text_Stuff" data-name="Text Stuff" transform="translate(9.198 14.41)">
            <rect id="Label" width="170.672" height="7.205" rx="3" fill="#dde3e9"/>
            <rect id="Label-2" data-name="Label" width="114.561" height="7.205" rx="3" transform="translate(0 12.008)" fill="#dde3e9"/>
          </g>
          <g id="Check" transform="translate(198.219 16.863)">
            <circle id="Background-3" data-name="Background" cx="7.154" cy="7.154" r="7.154" fill="#dde3e9"/>
            <circle id="Indicator" cx="3.066" cy="3.066" r="3.066" transform="translate(4.088 4.088)" fill="#f2f2f2"/>
          </g>
        </g>
        <g id="Row-2" data-name="Row" transform="translate(0 56.209)">
          <rect id="Container-3" data-name="Container" width="229.947" height="39.858" rx="4" fill="#fff"/>
          <g id="Text_Stuff-2" data-name="Text Stuff" transform="translate(9.198 11.957)">
            <rect id="Label-3" data-name="Label" width="170.672" height="5.979" rx="2.989" fill="#dde3e9"/>
            <rect id="Label-4" data-name="Label" width="114.561" height="5.979" rx="2.989" transform="translate(0 9.964)" fill="#dde3e9"/>
          </g>
          <g id="Check-2" data-name="Check" transform="translate(198.219 12.775)">
            <circle id="Background-4" data-name="Background" cx="7.154" cy="7.154" r="7.154" fill="#dde3e9"/>
            <circle id="Indicator-2" data-name="Indicator" cx="3.066" cy="3.066" r="3.066" transform="translate(4.088 4.088)" fill="#f2f2f2"/>
          </g>
        </g>
        <g id="Row-3" data-name="Row" transform="translate(0 104.243)">
          <rect id="Container-4" data-name="Container" width="229.947" height="39.858" rx="4" fill="#fff"/>
          <g id="Text_Stuff-3" data-name="Text Stuff" transform="translate(9.198 11.957)">
            <rect id="Label-5" data-name="Label" width="170.672" height="5.979" rx="2.989" fill="#dde3e9"/>
            <rect id="Label-6" data-name="Label" width="114.561" height="5.979" rx="2.989" transform="translate(0 9.964)" fill="#dde3e9"/>
          </g>
          <g id="Check-3" data-name="Check" transform="translate(198.219 12.775)">
            <circle id="Background-5" data-name="Background" cx="7.154" cy="7.154" r="7.154" fill="#dde3e9"/>
            <circle id="Indicator-3" data-name="Indicator" cx="3.066" cy="3.066" r="3.066" transform="translate(4.088 4.088)" fill="#afb9c5"/>
          </g>
        </g>
        <g id="Row-4" data-name="Row" transform="translate(0 248.343)">
          <rect id="Container-5" data-name="Container" width="229.947" height="39.858" rx="4" fill="#fff"/>
          <g id="Text_Stuff-4" data-name="Text Stuff" transform="translate(9.198 11.957)">
            <rect id="Label-7" data-name="Label" width="170.672" height="5.979" rx="2.989" fill="#dde3e9"/>
            <rect id="Label-8" data-name="Label" width="114.561" height="5.979" rx="2.989" transform="translate(0 9.964)" fill="#dde3e9"/>
          </g>
          <g id="Check-4" data-name="Check" transform="translate(198.219 12.775)">
            <circle id="Background-6" data-name="Background" cx="7.154" cy="7.154" r="7.154" fill="#dde3e9"/>
            <circle id="Indicator-4" data-name="Indicator" cx="3.066" cy="3.066" r="3.066" transform="translate(4.088 4.088)" fill="#f2f2f2"/>
          </g>
        </g>
        <g id="Row-5" data-name="Row" transform="translate(0 200.31)">
          <rect id="Container-6" data-name="Container" width="229.947" height="39.858" rx="4" fill="#fff"/>
          <g id="Text_Stuff-5" data-name="Text Stuff" transform="translate(9.198 11.957)">
            <rect id="Label-9" data-name="Label" width="170.672" height="5.979" rx="2.989" fill="#dde3e9"/>
            <rect id="Label-10" data-name="Label" width="114.561" height="5.979" rx="2.989" transform="translate(0 9.964)" fill="#dde3e9"/>
          </g>
          <g id="Check-5" data-name="Check" transform="translate(198.219 12.775)">
            <circle id="Background-7" data-name="Background" cx="7.154" cy="7.154" r="7.154" fill="#dde3e9"/>
            <circle id="Indicator-5" data-name="Indicator" cx="3.066" cy="3.066" r="3.066" transform="translate(4.088 4.088)" fill="#f2f2f2"/>
          </g>
        </g>
        <g id="Row-6" data-name="Row" transform="translate(0 152.276)">
          <rect id="Container-7" data-name="Container" width="229.947" height="39.858" rx="4" fill="#fff"/>
          <g id="Text_Stuff-6" data-name="Text Stuff" transform="translate(9.198 11.957)">
            <rect id="Label-11" data-name="Label" width="170.672" height="5.979" rx="2.989" fill="#dde3e9"/>
            <rect id="Label-12" data-name="Label" width="114.561" height="5.979" rx="2.989" transform="translate(0 9.964)" fill="#dde3e9"/>
          </g>
          <g id="Check-6" data-name="Check" transform="translate(198.219 12.775)">
            <circle id="Background-8" data-name="Background" cx="7.154" cy="7.154" r="7.154" fill="#dde3e9"/>
            <circle id="Indicator-6" data-name="Indicator" cx="3.066" cy="3.066" r="3.066" transform="translate(4.088 4.088)" fill="#f2f2f2"/>
          </g>
        </g>
      </g>
    </g>
    <g id="Mobile3" transform="translate(520.211 1282)">
      <g id="Group" transform="translate(0 222.793)">
        <path id="Fill_16" data-name="Fill 16" d="M8.319,0c-1.354,0-2.7.027-4.056.1C3.232.151,1.657-.062.785.58c-.906.667-.844,2.033-.7,3,.748,5.1,2.575,9.625,6.4,13.239,5.883,5.565,12.628,8.393,20.609,9.652,5.606.885,10.782-.344,14.909-4.33a62.206,62.206,0,0,1,6.451,18.04,43.223,43.223,0,0,1,.64,9.272c-.064,2.012-.175,4.018-.391,6.021-.093.87-.537,2.187-.2,3.009a1.373,1.373,0,0,0,2.353.236c.5-.685.411-2.031.515-2.842.171-1.347.33-2.695.444-4.048.185-2.19.321-4.387.311-6.585A49.092,49.092,0,0,0,49.5,30.654c-2.882-9-7.558-16.991-14.831-23.264-4.472-3.857-9.59-5.419-15.4-6.258A77.19,77.19,0,0,0,8.319,0" transform="translate(4.088)" fill="#89c5cc"/>
        <path id="Fill_18" data-name="Fill 18" d="M33.287,0C18.674,0,8.832,11.778,4.179,24.018,2.424,28.632,2.013,33.7,1.337,38.544,1.12,40.1,1.2,42.468.569,43.853c-.229.5-.754.683-.5,1.367a1.11,1.11,0,0,0,.9.751c.919.169,2.219-.832,3.007-1.227C10.508,41.465,14.8,36.4,18.306,30.195A61.916,61.916,0,0,0,23.972,18.14a41.665,41.665,0,0,0,1.516-7.967,30.334,30.334,0,0,0,.2-3.191,6.434,6.434,0,0,0-.847-2.522c4.876-1.846,10.38-2.349,15.319-.436a19.631,19.631,0,0,1,10.488,9.483A18.091,18.091,0,0,1,51.939,17a12.031,12.031,0,0,0,.589,2.519c.912,1.724,2.832.572,2.647-1.034A20.761,20.761,0,0,0,48.825,6.4,22.841,22.841,0,0,0,33.287,0" transform="translate(0 35.77)" fill="#89c5cc"/>
      </g>
      <rect id="Container-8" data-name="Container" width="162.496" height="308.64" rx="8" transform="translate(49.055)" fill="#dde3e9"/>
      <circle id="Touch" cx="15.33" cy="15.33" r="15.33" transform="translate(114.463 258.563)" fill="#fff"/>
      <g id="Camera" transform="translate(114.463 16.352)">
        <circle id="Lens" cx="2.044" cy="2.044" r="2.044" fill="#fff"/>
        <rect id="Sensor" width="21.462" height="4.088" rx="2" transform="translate(9.198)" fill="#fff"/>
      </g>
      <g id="Rows-3" data-name="Rows" transform="translate(63.363 28.616)">
        <g id="Row-7" data-name="Row">
          <rect id="Container-9" data-name="Container" width="133.88" height="55.187" rx="4" fill="#fff"/>
          <g id="Text_Stuff-7" data-name="Text Stuff" transform="translate(9.198 16.556)">
            <rect id="Label-13" data-name="Label" width="74.605" height="8.278" rx="3" fill="#dde3e9"/>
            <rect id="Label-14" data-name="Label" width="50.077" height="8.278" rx="3" transform="translate(0 13.797)" fill="#dde3e9"/>
          </g>
          <g id="Check-7" data-name="Check" transform="translate(112.419 20.44)">
            <circle id="Background-9" data-name="Background" cx="7.154" cy="7.154" r="7.154" fill="#dde3e9"/>
            <circle id="Indicator-7" data-name="Indicator" cx="3.066" cy="3.066" r="3.066" transform="translate(4.088 4.088)" fill="#f2f2f2"/>
          </g>
        </g>
        <g id="Row-8" data-name="Row" transform="translate(0 63.363)">
          <rect id="Background-10" data-name="Background" width="133.88" height="42.923" rx="4" fill="#fff"/>
          <g id="Text" transform="translate(39.858 12.877)">
            <rect id="Name-3" data-name="Name" width="74.605" height="6.439" rx="3" fill="#dde3e9"/>
            <rect id="Name-4" data-name="Name" width="50.077" height="6.439" rx="3" transform="translate(0 10.731)" fill="#dde3e9"/>
          </g>
          <circle id="Avatar-2" data-name="Avatar" cx="12.264" cy="12.264" r="12.264" transform="translate(9.198 9.198)" fill="#c5cfd6"/>
        </g>
        <g id="Row-9" data-name="Row" transform="translate(0 114.463)">
          <rect id="Container-10" data-name="Container" width="133.88" height="42.923" rx="4" fill="#fff"/>
          <g id="Text_Stuff-8" data-name="Text Stuff" transform="translate(9.198 12.877)">
            <rect id="Label-15" data-name="Label" width="74.605" height="6.439" rx="3" fill="#dde3e9"/>
            <rect id="Label-16" data-name="Label" width="50.077" height="6.439" rx="3" transform="translate(0 10.731)" fill="#afb9c5"/>
          </g>
          <g id="Check-8" data-name="Check" transform="translate(112.419 14.308)">
            <circle id="Background-11" data-name="Background" cx="7.154" cy="7.154" r="7.154" fill="#dde3e9"/>
            <circle id="Indicator-8" data-name="Indicator" cx="3.066" cy="3.066" r="3.066" transform="translate(4.088 4.088)" fill="#f2f2f2"/>
          </g>
        </g>
        <g id="Row-10" data-name="Row" transform="translate(0 165.562)">
          <rect id="Background-12" data-name="Background" width="133.88" height="42.923" rx="4" fill="#fff"/>
          <g id="Text-2" data-name="Text" transform="translate(39.858 12.877)">
            <rect id="Name-5" data-name="Name" width="74.605" height="6.439" rx="3" fill="#dde3e9"/>
            <rect id="Name-6" data-name="Name" width="50.077" height="6.439" rx="3" transform="translate(0 10.731)" fill="#dde3e9"/>
          </g>
          <circle id="Avatar-3" data-name="Avatar" cx="12.264" cy="12.264" r="12.264" transform="translate(9.198 9.198)" fill="#c5cfd6"/>
        </g>
      </g>
    </g>
    <g id="Chart" transform="translate(305.594 1344.341)">
      <path id="Value" d="M94.094,92.631A26.192,26.192,0,1,1,74.982,48.584V0C33.749,0,0,33.642,0,74.744s33.749,74.744,74.982,74.744a73.971,73.971,0,0,0,54.575-23.664Z" fill="#f2f2f2"/>
      <path id="Value-2" data-name="Value" d="M0,0V48.584A26.161,26.161,0,0,1,26.161,74.744H74.744A74.974,74.974,0,0,0,0,0Z" transform="translate(74.744)" fill="#afb9c5"/>
      <path id="Value-3" data-name="Value" d="M10.208,0A26.509,26.509,0,0,1,0,20.905L30.55,59.8A75.773,75.773,0,0,0,59.8,0Z" transform="translate(89.693 74.744)" fill="#c5cfd6"/>
    </g>
    <g id="Graph" transform="translate(539.629 1649.916)">
      <rect id="Value-4" data-name="Value" width="10.346" height="43.108" rx="3.5" transform="translate(0 55.179)" fill="#dde3e9"/>
      <rect id="Value-5" data-name="Value" width="10.346" height="70.698" rx="3.5" transform="translate(24.141 27.589)" fill="#dde3e9"/>
      <rect id="Value-6" data-name="Value" width="10.346" height="84.492" rx="3.5" transform="translate(48.281 13.795)" fill="#dde3e9"/>
      <rect id="Value-7" data-name="Value" width="10.346" height="70.698" rx="3.5" transform="translate(72.422 27.589)" fill="#dde3e9"/>
      <rect id="Value-8" data-name="Value" width="10.346" height="98.287" rx="3.5" transform="translate(96.563)" fill="#c5cfd6"/>
    </g>
    <g id="Plant" transform="translate(836.005 1571.223)">
      <path id="Fill_19" data-name="Fill 19" d="M10.156,36.522c19.077,32,41.3,62.993,54.639,97.984-.538-4.124-1.108-8.245-1.746-12.359-3.386-21.81-7.593-43.461-12.015-65.085-2.252-11.01-4.633-21.98-7.076-32.949-1.314-5.892-2.611-11.787-3.952-17.673C39.681,5.014,39.4,2.524,39,0,51.963,42.552,64.468,85.136,73.615,128.712q1.8,8.578,3.059,17.126c.286-1.3.568-2.6.876-3.9A251.822,251.822,0,0,1,93.412,96.45a137.917,137.917,0,0,1,11.064-20.08c2.665-3.948,8.95-8.641,11.381-12.685-13.3,24.386-18.1,54.9-25.774,81.41-1.874,6.47-3.759,12.929-5.607,19.4,11.577-23.218,29.54-42.294,54.514-50.561-30.23,19.974-48.363,54.954-60.581,90.729-.04.424-.088.849-.13,1.273,3.6-6.824,8.125-13,14.263-17.319,13.138-9.254,27.712-6.558,40.456,1.38-10-6.358-28.078-.568-36.494,5.894-6.025,4.626-11.174,10.832-15.645,16.886-1.071,1.451-2.533,3.145-4.077,4.951a223.209,223.209,0,0,1-10.688,41.856c.824-3.974.228-10.33.457-13.293.025-.321.045-.642.07-.961q-1.139,4.547-2.2,8.977a122.863,122.863,0,0,0,2.763-17.436q.23-3.826.461-7.651-.075-7.26-.587-14.567c-1.2-4.73-2.534-9.192-3.638-12.9A166.783,166.783,0,0,0,46.409,163.57a150.733,150.733,0,0,0-23.471-29.756c-4.886-4.821-10-9.412-15.039-14.068-1.823-1.683-5.081-5.821-7.9-7.978,20.522,11.314,41.645,23.554,56.616,41.783q-2.633-10.11-5.678-19.9C40.707,100.619,27.789,66.381,10.156,36.522Z" fill="#dde3e9"/>
      <path id="Base" d="M0,0C0,36.688,2.905,66.429,41.9,66.429S83.8,36.688,83.8,0" transform="translate(30.66 217.683)" fill="#c5cfd6"/>
    </g>
    <g id="Pie_Chart" data-name="Pie Chart" transform="translate(520.211 1411.792) rotate(180)">
      <path id="Value-9" data-name="Value" d="M0,28.982A28.889,28.889,0,0,1,28.616,0V28.982L9.06,50.077A28.719,28.719,0,0,1,0,28.982Z" transform="translate(57.231 57.231) rotate(180)" fill="#f2f2f2"/>
      <path id="Value-10" data-name="Value" d="M19.749,0h28.9a28.635,28.635,0,0,1-7.865,19.556,29.126,29.126,0,0,1-21.033,9.06A29.537,29.537,0,0,1,0,20.828Z" transform="translate(49.122 28.616) rotate(180)" fill="#afb9c5"/>
      <path id="Value-11" data-name="Value" d="M28.615,28.615H57.231A28.7,28.7,0,0,0,28.615,0V28.614Zm-2.861-2.861,0,0L14.308,0A26.26,26.26,0,0,0,0,14.308L25.751,25.753Z" transform="translate(57.231 57.231) rotate(180)" fill="#c5cfd6"/>
    </g>
  </g>
</svg>
